<svg xmlns="http://www.w3.org/2000/svg" version="1.1" xmlns:xlink="http://www.w3.org/1999/xlink" xmlns:svgjs="http://svgjs.com/svgjs" width="1440" height="560" preserveAspectRatio="none" viewBox="0 0 1440 560">
    <g mask="url(&quot;#SvgjsMask1018&quot;)" fill="none">
        <path d="M-37.52 405.49L-37.52 405.49" stroke="#132e65" stroke-width="1.5"></path>
        <path d="M-37.52 405.49L-105.27 512.4" stroke="#132e65" stroke-width="1.5"></path>
        <path d="M-105.27 512.4L-105.27 512.4" stroke="#132e65" stroke-width="1.5"></path>
        <path d="M-105.27 512.4L-96.31 651.82" stroke="#132e65" stroke-width="1.5"></path>
        <path d="M-105.27 512.4L52.83 496.32" stroke="#132e65" stroke-width="1.5"></path>
        <path d="M-105.27 512.4L76.71 642.39" stroke="#132e65" stroke-width="1.5"></path>
        <path d="M-105.27 512.4L188.98 507.8" stroke="#132e65" stroke-width="1.5"></path>
        <path d="M-96.31 651.82L-96.31 651.82" stroke="#132e65" stroke-width="1.5"></path>
        <path d="M-96.31 651.82L76.71 642.39" stroke="#132e65" stroke-width="1.5"></path>
        <path d="M-96.31 651.82L52.83 496.32" stroke="#132e65" stroke-width="1.5"></path>
        <path d="M-96.31 651.82L-37.52 405.49" stroke="#132e65" stroke-width="1.5"></path>
        <path d="M-96.31 651.82L188.98 507.8" stroke="#132e65" stroke-width="1.5"></path>
        <path d="M52.83 496.32L52.83 496.32" stroke="#132e65" stroke-width="1.5"></path>
        <path d="M52.83 496.32L-37.52 405.49" stroke="#132e65" stroke-width="1.5"></path>
        <path d="M52.83 496.32L188.98 507.8" stroke="#132e65" stroke-width="1.5"></path>
        <path d="M52.83 496.32L76.71 642.39" stroke="#132e65" stroke-width="1.5"></path>
        <path d="M76.71 642.39L76.71 642.39" stroke="#132e65" stroke-width="1.5"></path>
        <path d="M76.71 642.39L226.12 697.57" stroke="#132e65" stroke-width="1.5"></path>
        <path d="M76.71 642.39L188.98 507.8" stroke="#132e65" stroke-width="1.5"></path>
        <path d="M209.91 369.54L209.91 369.54" stroke="#132e65" stroke-width="1.5"></path>
        <path d="M209.91 369.54L188.98 507.8" stroke="#132e65" stroke-width="1.5"></path>
        <path d="M209.91 369.54L376.75 352.46" stroke="#132e65" stroke-width="1.5"></path>
        <path d="M209.91 369.54L52.83 496.32" stroke="#132e65" stroke-width="1.5"></path>
        <path d="M209.91 369.54L372.44 531.63" stroke="#132e65" stroke-width="1.5"></path>
        <path d="M188.98 507.8L188.98 507.8" stroke="#132e65" stroke-width="1.5"></path>
        <path d="M226.12 697.57L226.12 697.57" stroke="#132e65" stroke-width="1.5"></path>
        <path d="M226.12 697.57L396.43 641.68" stroke="#132e65" stroke-width="1.5"></path>
        <path d="M226.12 697.57L188.98 507.8" stroke="#132e65" stroke-width="1.5"></path>
        <path d="M226.12 697.57L372.44 531.63" stroke="#132e65" stroke-width="1.5"></path>
        <path d="M226.12 697.57L52.83 496.32" stroke="#132e65" stroke-width="1.5"></path>
        <path d="M376.75 352.46L376.75 352.46" stroke="#132e65" stroke-width="1.5"></path>
        <path d="M376.75 352.46L372.44 531.63" stroke="#132e65" stroke-width="1.5"></path>
        <path d="M376.75 352.46L558.83 392.2" stroke="#132e65" stroke-width="1.5"></path>
        <path d="M376.75 352.46L510.97 493.64" stroke="#132e65" stroke-width="1.5"></path>
        <path d="M372.44 531.63L372.44 531.63" stroke="#132e65" stroke-width="1.5"></path>
        <path d="M372.44 531.63L396.43 641.68" stroke="#132e65" stroke-width="1.5"></path>
        <path d="M372.44 531.63L510.97 493.64" stroke="#132e65" stroke-width="1.5"></path>
        <path d="M372.44 531.63L188.98 507.8" stroke="#132e65" stroke-width="1.5"></path>
        <path d="M372.44 531.63L510.26 669.03" stroke="#132e65" stroke-width="1.5"></path>
        <path d="M396.43 641.68L396.43 641.68" stroke="#132e65" stroke-width="1.5"></path>
        <path d="M396.43 641.68L510.26 669.03" stroke="#132e65" stroke-width="1.5"></path>
        <path d="M558.83 392.2L558.83 392.2" stroke="#132e65" stroke-width="1.5"></path>
        <path d="M558.83 392.2L654.78 358.38" stroke="#132e65" stroke-width="1.5"></path>
        <path d="M510.97 493.64L510.97 493.64" stroke="#132e65" stroke-width="1.5"></path>
        <path d="M510.97 493.64L558.83 392.2" stroke="#132e65" stroke-width="1.5"></path>
        <path d="M510.97 493.64L652.69 504.35" stroke="#132e65" stroke-width="1.5"></path>
        <path d="M510.97 493.64L510.26 669.03" stroke="#132e65" stroke-width="1.5"></path>
        <path d="M510.26 669.03L510.26 669.03" stroke="#132e65" stroke-width="1.5"></path>
        <path d="M510.26 669.03L671.65 703.87" stroke="#132e65" stroke-width="1.5"></path>
        <path d="M510.26 669.03L652.69 504.35" stroke="#132e65" stroke-width="1.5"></path>
        <path d="M641.11 229.89L641.11 229.89" stroke="#132e65" stroke-width="1.5"></path>
        <path d="M641.11 229.89L654.78 358.38" stroke="#132e65" stroke-width="1.5"></path>
        <path d="M641.11 229.89L813.39 196.25" stroke="#132e65" stroke-width="1.5"></path>
        <path d="M641.11 229.89L558.83 392.2" stroke="#132e65" stroke-width="1.5"></path>
        <path d="M641.11 229.89L843.9 373.77" stroke="#132e65" stroke-width="1.5"></path>
        <path d="M641.11 229.89L652.69 504.35" stroke="#132e65" stroke-width="1.5"></path>
        <path d="M641.11 229.89L376.75 352.46" stroke="#132e65" stroke-width="1.5"></path>
        <path d="M654.78 358.38L654.78 358.38" stroke="#132e65" stroke-width="1.5"></path>
        <path d="M654.78 358.38L652.69 504.35" stroke="#132e65" stroke-width="1.5"></path>
        <path d="M654.78 358.38L843.9 373.77" stroke="#132e65" stroke-width="1.5"></path>
        <path d="M654.78 358.38L510.97 493.64" stroke="#132e65" stroke-width="1.5"></path>
        <path d="M654.78 358.38L813.39 196.25" stroke="#132e65" stroke-width="1.5"></path>
        <path d="M652.69 504.35L652.69 504.35" stroke="#132e65" stroke-width="1.5"></path>
        <path d="M652.69 504.35L558.83 392.2" stroke="#132e65" stroke-width="1.5"></path>
        <path d="M671.65 703.87L671.65 703.87" stroke="#132e65" stroke-width="1.5"></path>
        <path d="M671.65 703.87L818.34 680.07" stroke="#132e65" stroke-width="1.5"></path>
        <path d="M671.65 703.87L652.69 504.35" stroke="#132e65" stroke-width="1.5"></path>
        <path d="M671.65 703.87L828.8 551.89" stroke="#132e65" stroke-width="1.5"></path>
        <path d="M671.65 703.87L510.97 493.64" stroke="#132e65" stroke-width="1.5"></path>
        <path d="M671.65 703.87L396.43 641.68" stroke="#132e65" stroke-width="1.5"></path>
        <path d="M813.39 196.25L813.39 196.25" stroke="#132e65" stroke-width="1.5"></path>
        <path d="M813.39 196.25L943.1 243.08" stroke="#132e65" stroke-width="1.5"></path>
        <path d="M843.9 373.77L843.9 373.77" stroke="#132e65" stroke-width="1.5"></path>
        <path d="M843.9 373.77L994.19 399.62" stroke="#132e65" stroke-width="1.5"></path>
        <path d="M843.9 373.77L943.1 243.08" stroke="#132e65" stroke-width="1.5"></path>
        <path d="M843.9 373.77L947.91 502.19" stroke="#132e65" stroke-width="1.5"></path>
        <path d="M843.9 373.77L828.8 551.89" stroke="#132e65" stroke-width="1.5"></path>
        <path d="M843.9 373.77L813.39 196.25" stroke="#132e65" stroke-width="1.5"></path>
        <path d="M828.8 551.89L828.8 551.89" stroke="#132e65" stroke-width="1.5"></path>
        <path d="M828.8 551.89L818.34 680.07" stroke="#132e65" stroke-width="1.5"></path>
        <path d="M818.34 680.07L818.34 680.07" stroke="#132e65" stroke-width="1.5"></path>
        <path d="M818.34 680.07L985.05 694.3" stroke="#132e65" stroke-width="1.5"></path>
        <path d="M938.03 -110.32L938.03 -110.32" stroke="#132e65" stroke-width="1.5"></path>
        <path d="M938.03 -110.32L1125.4 -106.82" stroke="#132e65" stroke-width="1.5"></path>
        <path d="M938.03 -110.32L1006.17 75.62" stroke="#132e65" stroke-width="1.5"></path>
        <path d="M938.03 -110.32L1100.54 92.17" stroke="#132e65" stroke-width="1.5"></path>
        <path d="M1006.17 75.62L1006.17 75.62" stroke="#132e65" stroke-width="1.5"></path>
        <path d="M1006.17 75.62L1100.54 92.17" stroke="#132e65" stroke-width="1.5"></path>
        <path d="M1006.17 75.62L943.1 243.08" stroke="#132e65" stroke-width="1.5"></path>
        <path d="M1006.17 75.62L1098.4 233.76" stroke="#132e65" stroke-width="1.5"></path>
        <path d="M943.1 243.08L943.1 243.08" stroke="#132e65" stroke-width="1.5"></path>
        <path d="M943.1 243.08L1098.4 233.76" stroke="#132e65" stroke-width="1.5"></path>
        <path d="M943.1 243.08L994.19 399.62" stroke="#132e65" stroke-width="1.5"></path>
        <path d="M994.19 399.62L994.19 399.62" stroke="#132e65" stroke-width="1.5"></path>
        <path d="M994.19 399.62L947.91 502.19" stroke="#132e65" stroke-width="1.5"></path>
        <path d="M947.91 502.19L947.91 502.19" stroke="#132e65" stroke-width="1.5"></path>
        <path d="M947.91 502.19L828.8 551.89" stroke="#132e65" stroke-width="1.5"></path>
        <path d="M947.91 502.19L1125.72 508.26" stroke="#132e65" stroke-width="1.5"></path>
        <path d="M947.91 502.19L985.05 694.3" stroke="#132e65" stroke-width="1.5"></path>
        <path d="M985.05 694.3L985.05 694.3" stroke="#132e65" stroke-width="1.5"></path>
        <path d="M985.05 694.3L1156.95 651.3" stroke="#132e65" stroke-width="1.5"></path>
        <path d="M985.05 694.3L828.8 551.89" stroke="#132e65" stroke-width="1.5"></path>
        <path d="M985.05 694.3L1125.72 508.26" stroke="#132e65" stroke-width="1.5"></path>
        <path d="M985.05 694.3L1251.79 675.89" stroke="#132e65" stroke-width="1.5"></path>
        <path d="M1125.4 -106.82L1125.4 -106.82" stroke="#132e65" stroke-width="1.5"></path>
        <path d="M1125.4 -106.82L1269.29 -52.52" stroke="#132e65" stroke-width="1.5"></path>
        <path d="M1100.54 92.17L1100.54 92.17" stroke="#132e65" stroke-width="1.5"></path>
        <path d="M1100.54 92.17L1098.4 233.76" stroke="#132e65" stroke-width="1.5"></path>
        <path d="M1100.54 92.17L1242.72 86.33" stroke="#132e65" stroke-width="1.5"></path>
        <path d="M1100.54 92.17L1125.4 -106.82" stroke="#132e65" stroke-width="1.5"></path>
        <path d="M1100.54 92.17L943.1 243.08" stroke="#132e65" stroke-width="1.5"></path>
        <path d="M1100.54 92.17L1269.29 -52.52" stroke="#132e65" stroke-width="1.5"></path>
        <path d="M1098.4 233.76L1098.4 233.76" stroke="#132e65" stroke-width="1.5"></path>
        <path d="M1098.4 233.76L1157.65 338.56" stroke="#132e65" stroke-width="1.5"></path>
        <path d="M1157.65 338.56L1157.65 338.56" stroke="#132e65" stroke-width="1.5"></path>
        <path d="M1157.65 338.56L1305.17 340.39" stroke="#132e65" stroke-width="1.5"></path>
        <path d="M1157.65 338.56L1125.72 508.26" stroke="#132e65" stroke-width="1.5"></path>
        <path d="M1157.65 338.56L994.19 399.62" stroke="#132e65" stroke-width="1.5"></path>
        <path d="M1157.65 338.56L1306.63 192.32" stroke="#132e65" stroke-width="1.5"></path>
        <path d="M1125.72 508.26L1125.72 508.26" stroke="#132e65" stroke-width="1.5"></path>
        <path d="M1125.72 508.26L1156.95 651.3" stroke="#132e65" stroke-width="1.5"></path>
        <path d="M1125.72 508.26L994.19 399.62" stroke="#132e65" stroke-width="1.5"></path>
        <path d="M1156.95 651.3L1156.95 651.3" stroke="#132e65" stroke-width="1.5"></path>
        <path d="M1156.95 651.3L1251.79 675.89" stroke="#132e65" stroke-width="1.5"></path>
        <path d="M1156.95 651.3L1309.66 551.28" stroke="#132e65" stroke-width="1.5"></path>
        <path d="M1269.29 -52.52L1269.29 -52.52" stroke="#132e65" stroke-width="1.5"></path>
        <path d="M1269.29 -52.52L1242.72 86.33" stroke="#132e65" stroke-width="1.5"></path>
        <path d="M1269.29 -52.52L1435.12 -79.02" stroke="#132e65" stroke-width="1.5"></path>
        <path d="M1269.29 -52.52L1402.04 71.84" stroke="#132e65" stroke-width="1.5"></path>
        <path d="M1269.29 -52.52L1306.63 192.32" stroke="#132e65" stroke-width="1.5"></path>
        <path d="M1242.72 86.33L1242.72 86.33" stroke="#132e65" stroke-width="1.5"></path>
        <path d="M1242.72 86.33L1306.63 192.32" stroke="#132e65" stroke-width="1.5"></path>
        <path d="M1242.72 86.33L1402.04 71.84" stroke="#132e65" stroke-width="1.5"></path>
        <path d="M1242.72 86.33L1391.77 216.93" stroke="#132e65" stroke-width="1.5"></path>
        <path d="M1306.63 192.32L1306.63 192.32" stroke="#132e65" stroke-width="1.5"></path>
        <path d="M1306.63 192.32L1391.77 216.93" stroke="#132e65" stroke-width="1.5"></path>
        <path d="M1306.63 192.32L1305.17 340.39" stroke="#132e65" stroke-width="1.5"></path>
        <path d="M1305.17 340.39L1305.17 340.39" stroke="#132e65" stroke-width="1.5"></path>
        <path d="M1305.17 340.39L1411.26 339.71" stroke="#132e65" stroke-width="1.5"></path>
        <path d="M1305.17 340.39L1391.77 216.93" stroke="#132e65" stroke-width="1.5"></path>
        <path d="M1305.17 340.39L1309.66 551.28" stroke="#132e65" stroke-width="1.5"></path>
        <path d="M1309.66 551.28L1309.66 551.28" stroke="#132e65" stroke-width="1.5"></path>
        <path d="M1309.66 551.28L1251.79 675.89" stroke="#132e65" stroke-width="1.5"></path>
        <path d="M1309.66 551.28L1433.39 644.65" stroke="#132e65" stroke-width="1.5"></path>
        <path d="M1309.66 551.28L1457.51 488.45" stroke="#132e65" stroke-width="1.5"></path>
        <path d="M1251.79 675.89L1251.79 675.89" stroke="#132e65" stroke-width="1.5"></path>
        <path d="M1251.79 675.89L1433.39 644.65" stroke="#132e65" stroke-width="1.5"></path>
        <path d="M1251.79 675.89L1125.72 508.26" stroke="#132e65" stroke-width="1.5"></path>
        <path d="M1435.12 -79.02L1435.12 -79.02" stroke="#132e65" stroke-width="1.5"></path>
        <path d="M1435.12 -79.02L1548.98 -60.87" stroke="#132e65" stroke-width="1.5"></path>
        <path d="M1435.12 -79.02L1402.04 71.84" stroke="#132e65" stroke-width="1.5"></path>
        <path d="M1402.04 71.84L1402.04 71.84" stroke="#132e65" stroke-width="1.5"></path>
        <path d="M1402.04 71.84L1391.77 216.93" stroke="#132e65" stroke-width="1.5"></path>
        <path d="M1402.04 71.84L1306.63 192.32" stroke="#132e65" stroke-width="1.5"></path>
        <path d="M1402.04 71.84L1567.73 70.43" stroke="#132e65" stroke-width="1.5"></path>
        <path d="M1391.77 216.93L1391.77 216.93" stroke="#132e65" stroke-width="1.5"></path>
        <path d="M1391.77 216.93L1411.26 339.71" stroke="#132e65" stroke-width="1.5"></path>
        <path d="M1411.26 339.71L1411.26 339.71" stroke="#132e65" stroke-width="1.5"></path>
        <path d="M1411.26 339.71L1457.51 488.45" stroke="#132e65" stroke-width="1.5"></path>
        <path d="M1457.51 488.45L1457.51 488.45" stroke="#132e65" stroke-width="1.5"></path>
        <path d="M1457.51 488.45L1582.37 505.93" stroke="#132e65" stroke-width="1.5"></path>
        <path d="M1457.51 488.45L1433.39 644.65" stroke="#132e65" stroke-width="1.5"></path>
        <path d="M1457.51 488.45L1578.79 342.25" stroke="#132e65" stroke-width="1.5"></path>
        <path d="M1433.39 644.65L1433.39 644.65" stroke="#132e65" stroke-width="1.5"></path>
        <path d="M1433.39 644.65L1584.09 666.78" stroke="#132e65" stroke-width="1.5"></path>
        <path d="M1548.98 -60.87L1548.98 -60.87" stroke="#132e65" stroke-width="1.5"></path>
        <path d="M1548.98 -60.87L1567.73 70.43" stroke="#132e65" stroke-width="1.5"></path>
        <path d="M1567.73 70.43L1567.73 70.43" stroke="#132e65" stroke-width="1.5"></path>
        <path d="M1567.73 70.43L1567.23 228.84" stroke="#132e65" stroke-width="1.5"></path>
        <path d="M1567.73 70.43L1435.12 -79.02" stroke="#132e65" stroke-width="1.5"></path>
        <path d="M1567.73 70.43L1391.77 216.93" stroke="#132e65" stroke-width="1.5"></path>
        <path d="M1567.23 228.84L1567.23 228.84" stroke="#132e65" stroke-width="1.5"></path>
        <path d="M1567.23 228.84L1578.79 342.25" stroke="#132e65" stroke-width="1.5"></path>
        <path d="M1567.23 228.84L1391.77 216.93" stroke="#132e65" stroke-width="1.5"></path>
        <path d="M1567.23 228.84L1411.26 339.71" stroke="#132e65" stroke-width="1.5"></path>
        <path d="M1567.23 228.84L1402.04 71.84" stroke="#132e65" stroke-width="1.5"></path>
        <path d="M1578.79 342.25L1578.79 342.25" stroke="#132e65" stroke-width="1.5"></path>
        <path d="M1578.79 342.25L1582.37 505.93" stroke="#132e65" stroke-width="1.5"></path>
        <path d="M1578.79 342.25L1411.26 339.71" stroke="#132e65" stroke-width="1.5"></path>
        <path d="M1578.79 342.25L1391.77 216.93" stroke="#132e65" stroke-width="1.5"></path>
        <path d="M1578.79 342.25L1567.73 70.43" stroke="#132e65" stroke-width="1.5"></path>
        <path d="M1582.37 505.93L1582.37 505.93" stroke="#132e65" stroke-width="1.5"></path>
        <path d="M1582.37 505.93L1584.09 666.78" stroke="#132e65" stroke-width="1.5"></path>
        <path d="M1584.09 666.78L1584.09 666.78" stroke="#132e65" stroke-width="1.5"></path>
        <path d="M1584.09 666.78L1457.51 488.45" stroke="#132e65" stroke-width="1.5"></path>
        <circle r="5" cx="-37.52" cy="405.49" fill="#132e65"></circle>
        <circle r="5" cx="-105.27" cy="512.4" fill="#132e65"></circle>
        <circle r="5" cx="-96.31" cy="651.82" fill="#132e65"></circle>
        <circle r="5" cx="52.83" cy="496.32" fill="#132e65"></circle>
        <circle r="5" cx="76.71" cy="642.39" fill="#132e65"></circle>
        <circle r="5" cx="209.91" cy="369.54" fill="#132e65"></circle>
        <circle r="5" cx="188.98" cy="507.8" fill="#132e65"></circle>
        <circle r="5" cx="226.12" cy="697.57" fill="#132e65"></circle>
        <circle r="5" cx="376.75" cy="352.46" fill="#132e65"></circle>
        <circle r="5" cx="372.44" cy="531.63" fill="#132e65"></circle>
        <circle r="5" cx="396.43" cy="641.68" fill="#132e65"></circle>
        <circle r="5" cx="558.83" cy="392.2" fill="#132e65"></circle>
        <circle r="5" cx="510.97" cy="493.64" fill="#132e65"></circle>
        <circle r="5" cx="510.26" cy="669.03" fill="#132e65"></circle>
        <circle r="5" cx="641.11" cy="229.89" fill="#132e65"></circle>
        <circle r="5" cx="654.78" cy="358.38" fill="#132e65"></circle>
        <circle r="5" cx="652.69" cy="504.35" fill="#132e65"></circle>
        <circle r="5" cx="671.65" cy="703.87" fill="#132e65"></circle>
        <circle r="5" cx="813.39" cy="196.25" fill="#132e65"></circle>
        <circle r="5" cx="843.9" cy="373.77" fill="#132e65"></circle>
        <circle r="5" cx="828.8" cy="551.89" fill="#132e65"></circle>
        <circle r="5" cx="818.34" cy="680.07" fill="#132e65"></circle>
        <circle r="5" cx="938.03" cy="-110.32" fill="#132e65"></circle>
        <circle r="5" cx="1006.17" cy="75.62" fill="#132e65"></circle>
        <circle r="5" cx="943.1" cy="243.08" fill="#132e65"></circle>
        <circle r="5" cx="994.19" cy="399.62" fill="#132e65"></circle>
        <circle r="5" cx="947.91" cy="502.19" fill="#132e65"></circle>
        <circle r="5" cx="985.05" cy="694.3" fill="#132e65"></circle>
        <circle r="5" cx="1125.4" cy="-106.82" fill="#132e65"></circle>
        <circle r="5" cx="1100.54" cy="92.17" fill="#132e65"></circle>
        <circle r="5" cx="1098.4" cy="233.76" fill="#132e65"></circle>
        <circle r="5" cx="1157.65" cy="338.56" fill="#132e65"></circle>
        <circle r="5" cx="1125.72" cy="508.26" fill="#132e65"></circle>
        <circle r="5" cx="1156.95" cy="651.3" fill="#132e65"></circle>
        <circle r="5" cx="1269.29" cy="-52.52" fill="#132e65"></circle>
        <circle r="5" cx="1242.72" cy="86.33" fill="#132e65"></circle>
        <circle r="5" cx="1306.63" cy="192.32" fill="#132e65"></circle>
        <circle r="5" cx="1305.17" cy="340.39" fill="#132e65"></circle>
        <circle r="5" cx="1309.66" cy="551.28" fill="#132e65"></circle>
        <circle r="5" cx="1251.79" cy="675.89" fill="#132e65"></circle>
        <circle r="5" cx="1435.12" cy="-79.02" fill="#132e65"></circle>
        <circle r="5" cx="1402.04" cy="71.84" fill="#132e65"></circle>
        <circle r="5" cx="1391.77" cy="216.93" fill="#132e65"></circle>
        <circle r="5" cx="1411.26" cy="339.71" fill="#132e65"></circle>
        <circle r="5" cx="1457.51" cy="488.45" fill="#132e65"></circle>
        <circle r="5" cx="1433.39" cy="644.65" fill="#132e65"></circle>
        <circle r="5" cx="1548.98" cy="-60.87" fill="#132e65"></circle>
        <circle r="5" cx="1567.73" cy="70.43" fill="#132e65"></circle>
        <circle r="5" cx="1567.23" cy="228.84" fill="#132e65"></circle>
        <circle r="5" cx="1578.79" cy="342.25" fill="#132e65"></circle>
        <circle r="5" cx="1582.37" cy="505.93" fill="#132e65"></circle>
        <circle r="5" cx="1584.09" cy="666.78" fill="#132e65"></circle>
        <path d="M248.34 491.26L248.34 491.26" stroke="hsl(228.5, 77.2%, 51.5%)" stroke-width="1.5"></path>
        <path d="M248.34 491.26L397.46 516.01" stroke="hsl(228.5, 77.2%, 51.5%)" stroke-width="1.5"></path>
        <path d="M248.34 491.26L68.4 497.77" stroke="hsl(228.5, 77.2%, 51.5%)" stroke-width="1.5"></path>
        <path d="M1157.47 368.67L1157.47 368.67" stroke="hsl(228.5, 77.2%, 51.5%)" stroke-width="1.5"></path>
        <path d="M1157.47 368.67L1130.84 234.74" stroke="hsl(228.5, 77.2%, 51.5%)" stroke-width="1.5"></path>
        <path d="M1157.47 368.67L1118.02 542.7" stroke="hsl(228.5, 77.2%, 51.5%)" stroke-width="1.5"></path>
        <path d="M1157.47 368.67L962.42 338.34" stroke="hsl(228.5, 77.2%, 51.5%)" stroke-width="1.5"></path>
        <path d="M1157.47 368.67L993.11 239.88" stroke="hsl(228.5, 77.2%, 51.5%)" stroke-width="1.5"></path>
        <path d="M1114.04 702.12L1114.04 702.12" stroke="hsl(228.5, 77.2%, 51.5%)" stroke-width="1.5"></path>
        <path d="M1114.04 702.12L1118.02 542.7" stroke="hsl(228.5, 77.2%, 51.5%)" stroke-width="1.5"></path>
        <path d="M1114.04 702.12L1290.28 704.84" stroke="hsl(228.5, 77.2%, 51.5%)" stroke-width="1.5"></path>
        <path d="M1114.04 702.12L939.57 661.1" stroke="hsl(228.5, 77.2%, 51.5%)" stroke-width="1.5"></path>
        <path d="M1432.34 221.5L1432.34 221.5" stroke="hsl(228.5, 77.2%, 51.5%)" stroke-width="1.5"></path>
        <path d="M1432.34 221.5L1538.48 259.18" stroke="hsl(228.5, 77.2%, 51.5%)" stroke-width="1.5"></path>
        <path d="M1432.34 221.5L1288.07 194.27" stroke="hsl(228.5, 77.2%, 51.5%)" stroke-width="1.5"></path>
        <path d="M1561.7 -51.05L1561.7 -51.05" stroke="hsl(228.5, 77.2%, 51.5%)" stroke-width="1.5"></path>
        <path d="M1561.7 -51.05L1572.7 75.38" stroke="hsl(228.5, 77.2%, 51.5%)" stroke-width="1.5"></path>
        <path d="M1561.7 -51.05L1418.02 -49.75" stroke="hsl(228.5, 77.2%, 51.5%)" stroke-width="1.5"></path>
        <path d="M1561.7 -51.05L1404.86 50.14" stroke="hsl(228.5, 77.2%, 51.5%)" stroke-width="1.5"></path>
        <path d="M1561.7 -51.05L1273.3 -97.17" stroke="hsl(228.5, 77.2%, 51.5%)" stroke-width="1.5"></path>
        <path d="M1561.7 -51.05L1432.34 221.5" stroke="hsl(228.5, 77.2%, 51.5%)" stroke-width="1.5"></path>
        <path d="M1561.7 -51.05L1538.48 259.18" stroke="hsl(228.5, 77.2%, 51.5%)" stroke-width="1.5"></path>
        <path d="M-70.25 519.95L-70.25 519.95" stroke="hsl(228.5, 77.2%, 51.5%)" stroke-width="1.5"></path>
        <path d="M-70.25 519.95L68.4 497.77" stroke="hsl(228.5, 77.2%, 51.5%)" stroke-width="1.5"></path>
        <path d="M-70.25 519.95L-76.91 672.56" stroke="hsl(228.5, 77.2%, 51.5%)" stroke-width="1.5"></path>
        <path d="M-76.91 672.56L-76.91 672.56" stroke="hsl(228.5, 77.2%, 51.5%)" stroke-width="1.5"></path>
        <path d="M-76.91 672.56L42.91 707.2" stroke="hsl(228.5, 77.2%, 51.5%)" stroke-width="1.5"></path>
        <path d="M-76.91 672.56L68.4 497.77" stroke="hsl(228.5, 77.2%, 51.5%)" stroke-width="1.5"></path>
        <path d="M-76.91 672.56L200.27 673.64" stroke="hsl(228.5, 77.2%, 51.5%)" stroke-width="1.5"></path>
        <path d="M68.4 497.77L68.4 497.77" stroke="hsl(228.5, 77.2%, 51.5%)" stroke-width="1.5"></path>
        <path d="M42.91 707.2L42.91 707.2" stroke="hsl(228.5, 77.2%, 51.5%)" stroke-width="1.5"></path>
        <path d="M42.91 707.2L200.27 673.64" stroke="hsl(228.5, 77.2%, 51.5%)" stroke-width="1.5"></path>
        <path d="M42.91 707.2L68.4 497.77" stroke="hsl(228.5, 77.2%, 51.5%)" stroke-width="1.5"></path>
        <path d="M42.91 707.2L-70.25 519.95" stroke="hsl(228.5, 77.2%, 51.5%)" stroke-width="1.5"></path>
        <path d="M200.27 673.64L200.27 673.64" stroke="hsl(228.5, 77.2%, 51.5%)" stroke-width="1.5"></path>
        <path d="M200.27 673.64L346.13 686.41" stroke="hsl(228.5, 77.2%, 51.5%)" stroke-width="1.5"></path>
        <path d="M200.27 673.64L248.34 491.26" stroke="hsl(228.5, 77.2%, 51.5%)" stroke-width="1.5"></path>
        <path d="M200.27 673.64L68.4 497.77" stroke="hsl(228.5, 77.2%, 51.5%)" stroke-width="1.5"></path>
        <path d="M200.27 673.64L397.46 516.01" stroke="hsl(228.5, 77.2%, 51.5%)" stroke-width="1.5"></path>
        <path d="M397.46 516.01L397.46 516.01" stroke="hsl(228.5, 77.2%, 51.5%)" stroke-width="1.5"></path>
        <path d="M397.46 516.01L507.64 496.16" stroke="hsl(228.5, 77.2%, 51.5%)" stroke-width="1.5"></path>
        <path d="M397.46 516.01L346.13 686.41" stroke="hsl(228.5, 77.2%, 51.5%)" stroke-width="1.5"></path>
        <path d="M346.13 686.41L346.13 686.41" stroke="hsl(228.5, 77.2%, 51.5%)" stroke-width="1.5"></path>
        <path d="M346.13 686.41L519.9 645.74" stroke="hsl(228.5, 77.2%, 51.5%)" stroke-width="1.5"></path>
        <path d="M346.13 686.41L248.34 491.26" stroke="hsl(228.5, 77.2%, 51.5%)" stroke-width="1.5"></path>
        <path d="M346.13 686.41L507.64 496.16" stroke="hsl(228.5, 77.2%, 51.5%)" stroke-width="1.5"></path>
        <path d="M540.29 401.88L540.29 401.88" stroke="hsl(228.5, 77.2%, 51.5%)" stroke-width="1.5"></path>
        <path d="M540.29 401.88L507.64 496.16" stroke="hsl(228.5, 77.2%, 51.5%)" stroke-width="1.5"></path>
        <path d="M540.29 401.88L707.38 364.75" stroke="hsl(228.5, 77.2%, 51.5%)" stroke-width="1.5"></path>
        <path d="M540.29 401.88L397.46 516.01" stroke="hsl(228.5, 77.2%, 51.5%)" stroke-width="1.5"></path>
        <path d="M540.29 401.88L675.01 550.39" stroke="hsl(228.5, 77.2%, 51.5%)" stroke-width="1.5"></path>
        <path d="M540.29 401.88L519.9 645.74" stroke="hsl(228.5, 77.2%, 51.5%)" stroke-width="1.5"></path>
        <path d="M507.64 496.16L507.64 496.16" stroke="hsl(228.5, 77.2%, 51.5%)" stroke-width="1.5"></path>
        <path d="M507.64 496.16L519.9 645.74" stroke="hsl(228.5, 77.2%, 51.5%)" stroke-width="1.5"></path>
        <path d="M507.64 496.16L675.01 550.39" stroke="hsl(228.5, 77.2%, 51.5%)" stroke-width="1.5"></path>
        <path d="M507.64 496.16L707.38 364.75" stroke="hsl(228.5, 77.2%, 51.5%)" stroke-width="1.5"></path>
        <path d="M519.9 645.74L519.9 645.74" stroke="hsl(228.5, 77.2%, 51.5%)" stroke-width="1.5"></path>
        <path d="M519.9 645.74L688.04 691.12" stroke="hsl(228.5, 77.2%, 51.5%)" stroke-width="1.5"></path>
        <path d="M519.9 645.74L397.46 516.01" stroke="hsl(228.5, 77.2%, 51.5%)" stroke-width="1.5"></path>
        <path d="M519.9 645.74L675.01 550.39" stroke="hsl(228.5, 77.2%, 51.5%)" stroke-width="1.5"></path>
        <path d="M707.38 364.75L707.38 364.75" stroke="hsl(228.5, 77.2%, 51.5%)" stroke-width="1.5"></path>
        <path d="M707.38 364.75L820.51 374.17" stroke="hsl(228.5, 77.2%, 51.5%)" stroke-width="1.5"></path>
        <path d="M707.38 364.75L675.01 550.39" stroke="hsl(228.5, 77.2%, 51.5%)" stroke-width="1.5"></path>
        <path d="M707.38 364.75L830.86 542.94" stroke="hsl(228.5, 77.2%, 51.5%)" stroke-width="1.5"></path>
        <path d="M675.01 550.39L675.01 550.39" stroke="hsl(228.5, 77.2%, 51.5%)" stroke-width="1.5"></path>
        <path d="M675.01 550.39L688.04 691.12" stroke="hsl(228.5, 77.2%, 51.5%)" stroke-width="1.5"></path>
        <path d="M675.01 550.39L830.86 542.94" stroke="hsl(228.5, 77.2%, 51.5%)" stroke-width="1.5"></path>
        <path d="M675.01 550.39L823.09 645.46" stroke="hsl(228.5, 77.2%, 51.5%)" stroke-width="1.5"></path>
        <path d="M688.04 691.12L688.04 691.12" stroke="hsl(228.5, 77.2%, 51.5%)" stroke-width="1.5"></path>
        <path d="M688.04 691.12L823.09 645.46" stroke="hsl(228.5, 77.2%, 51.5%)" stroke-width="1.5"></path>
        <path d="M820.51 374.17L820.51 374.17" stroke="hsl(228.5, 77.2%, 51.5%)" stroke-width="1.5"></path>
        <path d="M820.51 374.17L962.42 338.34" stroke="hsl(228.5, 77.2%, 51.5%)" stroke-width="1.5"></path>
        <path d="M820.51 374.17L830.86 542.94" stroke="hsl(228.5, 77.2%, 51.5%)" stroke-width="1.5"></path>
        <path d="M820.51 374.17L993.11 239.88" stroke="hsl(228.5, 77.2%, 51.5%)" stroke-width="1.5"></path>
        <path d="M830.86 542.94L830.86 542.94" stroke="hsl(228.5, 77.2%, 51.5%)" stroke-width="1.5"></path>
        <path d="M830.86 542.94L823.09 645.46" stroke="hsl(228.5, 77.2%, 51.5%)" stroke-width="1.5"></path>
        <path d="M830.86 542.94L963.58 559.62" stroke="hsl(228.5, 77.2%, 51.5%)" stroke-width="1.5"></path>
        <path d="M830.86 542.94L939.57 661.1" stroke="hsl(228.5, 77.2%, 51.5%)" stroke-width="1.5"></path>
        <path d="M823.09 645.46L823.09 645.46" stroke="hsl(228.5, 77.2%, 51.5%)" stroke-width="1.5"></path>
        <path d="M823.09 645.46L939.57 661.1" stroke="hsl(228.5, 77.2%, 51.5%)" stroke-width="1.5"></path>
        <path d="M823.09 645.46L963.58 559.62" stroke="hsl(228.5, 77.2%, 51.5%)" stroke-width="1.5"></path>
        <path d="M993.11 239.88L993.11 239.88" stroke="hsl(228.5, 77.2%, 51.5%)" stroke-width="1.5"></path>
        <path d="M993.11 239.88L962.42 338.34" stroke="hsl(228.5, 77.2%, 51.5%)" stroke-width="1.5"></path>
        <path d="M993.11 239.88L1130.84 234.74" stroke="hsl(228.5, 77.2%, 51.5%)" stroke-width="1.5"></path>
        <path d="M962.42 338.34L962.42 338.34" stroke="hsl(228.5, 77.2%, 51.5%)" stroke-width="1.5"></path>
        <path d="M963.58 559.62L963.58 559.62" stroke="hsl(228.5, 77.2%, 51.5%)" stroke-width="1.5"></path>
        <path d="M963.58 559.62L939.57 661.1" stroke="hsl(228.5, 77.2%, 51.5%)" stroke-width="1.5"></path>
        <path d="M963.58 559.62L1118.02 542.7" stroke="hsl(228.5, 77.2%, 51.5%)" stroke-width="1.5"></path>
        <path d="M939.57 661.1L939.57 661.1" stroke="hsl(228.5, 77.2%, 51.5%)" stroke-width="1.5"></path>
        <path d="M1130.84 234.74L1130.84 234.74" stroke="hsl(228.5, 77.2%, 51.5%)" stroke-width="1.5"></path>
        <path d="M1118.02 542.7L1118.02 542.7" stroke="hsl(228.5, 77.2%, 51.5%)" stroke-width="1.5"></path>
        <path d="M1118.02 542.7L1286.4 553.44" stroke="hsl(228.5, 77.2%, 51.5%)" stroke-width="1.5"></path>
        <path d="M1118.02 542.7L939.57 661.1" stroke="hsl(228.5, 77.2%, 51.5%)" stroke-width="1.5"></path>
        <path d="M1118.02 542.7L1290.28 704.84" stroke="hsl(228.5, 77.2%, 51.5%)" stroke-width="1.5"></path>
        <path d="M1273.3 -97.17L1273.3 -97.17" stroke="hsl(228.5, 77.2%, 51.5%)" stroke-width="1.5"></path>
        <path d="M1273.3 -97.17L1418.02 -49.75" stroke="hsl(228.5, 77.2%, 51.5%)" stroke-width="1.5"></path>
        <path d="M1273.3 -97.17L1404.86 50.14" stroke="hsl(228.5, 77.2%, 51.5%)" stroke-width="1.5"></path>
        <path d="M1273.3 -97.17L1277.58 100.92" stroke="hsl(228.5, 77.2%, 51.5%)" stroke-width="1.5"></path>
        <path d="M1273.3 -97.17L1288.07 194.27" stroke="hsl(228.5, 77.2%, 51.5%)" stroke-width="1.5"></path>
        <path d="M1277.58 100.92L1277.58 100.92" stroke="hsl(228.5, 77.2%, 51.5%)" stroke-width="1.5"></path>
        <path d="M1277.58 100.92L1288.07 194.27" stroke="hsl(228.5, 77.2%, 51.5%)" stroke-width="1.5"></path>
        <path d="M1277.58 100.92L1404.86 50.14" stroke="hsl(228.5, 77.2%, 51.5%)" stroke-width="1.5"></path>
        <path d="M1277.58 100.92L1432.34 221.5" stroke="hsl(228.5, 77.2%, 51.5%)" stroke-width="1.5"></path>
        <path d="M1277.58 100.92L1130.84 234.74" stroke="hsl(228.5, 77.2%, 51.5%)" stroke-width="1.5"></path>
        <path d="M1277.58 100.92L1418.02 -49.75" stroke="hsl(228.5, 77.2%, 51.5%)" stroke-width="1.5"></path>
        <path d="M1288.07 194.27L1288.07 194.27" stroke="hsl(228.5, 77.2%, 51.5%)" stroke-width="1.5"></path>
        <path d="M1288.07 194.27L1130.84 234.74" stroke="hsl(228.5, 77.2%, 51.5%)" stroke-width="1.5"></path>
        <path d="M1288.07 194.27L1404.86 50.14" stroke="hsl(228.5, 77.2%, 51.5%)" stroke-width="1.5"></path>
        <path d="M1288.07 194.27L1157.47 368.67" stroke="hsl(228.5, 77.2%, 51.5%)" stroke-width="1.5"></path>
        <path d="M1286.4 553.44L1286.4 553.44" stroke="hsl(228.5, 77.2%, 51.5%)" stroke-width="1.5"></path>
        <path d="M1286.4 553.44L1430.93 517.95" stroke="hsl(228.5, 77.2%, 51.5%)" stroke-width="1.5"></path>
        <path d="M1290.28 704.84L1290.28 704.84" stroke="hsl(228.5, 77.2%, 51.5%)" stroke-width="1.5"></path>
        <path d="M1290.28 704.84L1286.4 553.44" stroke="hsl(228.5, 77.2%, 51.5%)" stroke-width="1.5"></path>
        <path d="M1290.28 704.84L1438.71 649.19" stroke="hsl(228.5, 77.2%, 51.5%)" stroke-width="1.5"></path>
        <path d="M1418.02 -49.75L1418.02 -49.75" stroke="hsl(228.5, 77.2%, 51.5%)" stroke-width="1.5"></path>
        <path d="M1418.02 -49.75L1404.86 50.14" stroke="hsl(228.5, 77.2%, 51.5%)" stroke-width="1.5"></path>
        <path d="M1418.02 -49.75L1572.7 75.38" stroke="hsl(228.5, 77.2%, 51.5%)" stroke-width="1.5"></path>
        <path d="M1418.02 -49.75L1432.34 221.5" stroke="hsl(228.5, 77.2%, 51.5%)" stroke-width="1.5"></path>
        <path d="M1404.86 50.14L1404.86 50.14" stroke="hsl(228.5, 77.2%, 51.5%)" stroke-width="1.5"></path>
        <path d="M1404.86 50.14L1572.7 75.38" stroke="hsl(228.5, 77.2%, 51.5%)" stroke-width="1.5"></path>
        <path d="M1457.48 377.84L1457.48 377.84" stroke="hsl(228.5, 77.2%, 51.5%)" stroke-width="1.5"></path>
        <path d="M1457.48 377.84L1541.08 395.96" stroke="hsl(228.5, 77.2%, 51.5%)" stroke-width="1.5"></path>
        <path d="M1457.48 377.84L1430.93 517.95" stroke="hsl(228.5, 77.2%, 51.5%)" stroke-width="1.5"></path>
        <path d="M1457.48 377.84L1538.48 259.18" stroke="hsl(228.5, 77.2%, 51.5%)" stroke-width="1.5"></path>
        <path d="M1457.48 377.84L1432.34 221.5" stroke="hsl(228.5, 77.2%, 51.5%)" stroke-width="1.5"></path>
        <path d="M1457.48 377.84L1286.4 553.44" stroke="hsl(228.5, 77.2%, 51.5%)" stroke-width="1.5"></path>
        <path d="M1457.48 377.84L1288.07 194.27" stroke="hsl(228.5, 77.2%, 51.5%)" stroke-width="1.5"></path>
        <path d="M1430.93 517.95L1430.93 517.95" stroke="hsl(228.5, 77.2%, 51.5%)" stroke-width="1.5"></path>
        <path d="M1430.93 517.95L1438.71 649.19" stroke="hsl(228.5, 77.2%, 51.5%)" stroke-width="1.5"></path>
        <path d="M1438.71 649.19L1438.71 649.19" stroke="hsl(228.5, 77.2%, 51.5%)" stroke-width="1.5"></path>
        <path d="M1438.71 649.19L1547.62 704.94" stroke="hsl(228.5, 77.2%, 51.5%)" stroke-width="1.5"></path>
        <path d="M1438.71 649.19L1286.4 553.44" stroke="hsl(228.5, 77.2%, 51.5%)" stroke-width="1.5"></path>
        <path d="M1438.71 649.19L1457.48 377.84" stroke="hsl(228.5, 77.2%, 51.5%)" stroke-width="1.5"></path>
        <path d="M1572.7 75.38L1572.7 75.38" stroke="hsl(228.5, 77.2%, 51.5%)" stroke-width="1.5"></path>
        <path d="M1572.7 75.38L1538.48 259.18" stroke="hsl(228.5, 77.2%, 51.5%)" stroke-width="1.5"></path>
        <path d="M1572.7 75.38L1432.34 221.5" stroke="hsl(228.5, 77.2%, 51.5%)" stroke-width="1.5"></path>
        <path d="M1572.7 75.38L1277.58 100.92" stroke="hsl(228.5, 77.2%, 51.5%)" stroke-width="1.5"></path>
        <path d="M1538.48 259.18L1538.48 259.18" stroke="hsl(228.5, 77.2%, 51.5%)" stroke-width="1.5"></path>
        <path d="M1538.48 259.18L1541.08 395.96" stroke="hsl(228.5, 77.2%, 51.5%)" stroke-width="1.5"></path>
        <path d="M1541.08 395.96L1541.08 395.96" stroke="hsl(228.5, 77.2%, 51.5%)" stroke-width="1.5"></path>
        <path d="M1541.08 395.96L1430.93 517.95" stroke="hsl(228.5, 77.2%, 51.5%)" stroke-width="1.5"></path>
        <path d="M1541.08 395.96L1432.34 221.5" stroke="hsl(228.5, 77.2%, 51.5%)" stroke-width="1.5"></path>
        <path d="M1541.08 395.96L1438.71 649.19" stroke="hsl(228.5, 77.2%, 51.5%)" stroke-width="1.5"></path>
        <path d="M1547.62 704.94L1547.62 704.94" stroke="hsl(228.5, 77.2%, 51.5%)" stroke-width="1.5"></path>
        <path d="M1547.62 704.94L1430.93 517.95" stroke="hsl(228.5, 77.2%, 51.5%)" stroke-width="1.5"></path>
        <circle r="25" cx="248.34" cy="491.26" fill="url(#SvgjsRadialGradient1019)"></circle>
        <circle r="25" cx="1157.47" cy="368.67" fill="url(#SvgjsRadialGradient1019)"></circle>
        <circle r="25" cx="1114.04" cy="702.12" fill="url(#SvgjsRadialGradient1019)"></circle>
        <circle r="25" cx="1432.34" cy="221.5" fill="url(#SvgjsRadialGradient1019)"></circle>
        <circle r="25" cx="1561.7" cy="-51.05" fill="url(#SvgjsRadialGradient1019)"></circle>
        <circle r="5" cx="-70.25" cy="519.95" fill="#8b9ad9"></circle>
        <circle r="5" cx="-76.91" cy="672.56" fill="#8b9ad9"></circle>
        <circle r="5" cx="68.4" cy="497.77" fill="#8b9ad9"></circle>
        <circle r="5" cx="42.91" cy="707.2" fill="#8b9ad9"></circle>
        <circle r="5" cx="200.27" cy="673.64" fill="#8b9ad9"></circle>
        <circle r="5" cx="397.46" cy="516.01" fill="#8b9ad9"></circle>
        <circle r="5" cx="346.13" cy="686.41" fill="#8b9ad9"></circle>
        <circle r="5" cx="540.29" cy="401.88" fill="#8b9ad9"></circle>
        <circle r="5" cx="507.64" cy="496.16" fill="#8b9ad9"></circle>
        <circle r="5" cx="519.9" cy="645.74" fill="#8b9ad9"></circle>
        <circle r="5" cx="707.38" cy="364.75" fill="#8b9ad9"></circle>
        <circle r="5" cx="675.01" cy="550.39" fill="#8b9ad9"></circle>
        <circle r="5" cx="688.04" cy="691.12" fill="#8b9ad9"></circle>
        <circle r="5" cx="820.51" cy="374.17" fill="#8b9ad9"></circle>
        <circle r="5" cx="830.86" cy="542.94" fill="#8b9ad9"></circle>
        <circle r="5" cx="823.09" cy="645.46" fill="#8b9ad9"></circle>
        <circle r="5" cx="993.11" cy="239.88" fill="#8b9ad9"></circle>
        <circle r="5" cx="962.42" cy="338.34" fill="#8b9ad9"></circle>
        <circle r="5" cx="963.58" cy="559.62" fill="#8b9ad9"></circle>
        <circle r="5" cx="939.57" cy="661.1" fill="#8b9ad9"></circle>
        <circle r="5" cx="1130.84" cy="234.74" fill="#8b9ad9"></circle>
        <circle r="5" cx="1118.02" cy="542.7" fill="#8b9ad9"></circle>
        <circle r="5" cx="1273.3" cy="-97.17" fill="#8b9ad9"></circle>
        <circle r="5" cx="1277.58" cy="100.92" fill="#8b9ad9"></circle>
        <circle r="5" cx="1288.07" cy="194.27" fill="#8b9ad9"></circle>
        <circle r="5" cx="1286.4" cy="553.44" fill="#8b9ad9"></circle>
        <circle r="5" cx="1290.28" cy="704.84" fill="#8b9ad9"></circle>
        <circle r="5" cx="1418.02" cy="-49.75" fill="#8b9ad9"></circle>
        <circle r="5" cx="1404.86" cy="50.14" fill="#8b9ad9"></circle>
        <circle r="5" cx="1457.48" cy="377.84" fill="#8b9ad9"></circle>
        <circle r="5" cx="1430.93" cy="517.95" fill="#8b9ad9"></circle>
        <circle r="5" cx="1438.71" cy="649.19" fill="#8b9ad9"></circle>
        <circle r="5" cx="1572.7" cy="75.38" fill="#8b9ad9"></circle>
        <circle r="5" cx="1538.48" cy="259.18" fill="#8b9ad9"></circle>
        <circle r="5" cx="1541.08" cy="395.96" fill="#8b9ad9"></circle>
        <circle r="5" cx="1547.62" cy="704.94" fill="#8b9ad9"></circle>
    </g>
    <defs>
        <mask id="SvgjsMask1018">
            <rect width="1440" height="560" fill="#ffffff"></rect>
        </mask>
        <radialGradient id="SvgjsRadialGradient1019">
            <stop stop-color="#ffffff" offset="0.1"></stop>
            <stop stop-color="#1735b3" offset="0.2"></stop>
            <stop stop-color="rgba(23, 53, 179, 0)" offset="1"></stop>
        </radialGradient>
    </defs>
</svg>